# xmcd CD database file
#
# Track frame offsets:
#	150
#	15659
#	41945
#	54755
#	69418
#	90336
#	109089
#
# Disc length: 1734 seconds
#
# Revision: 0
# Processed by: cddbd v1.5.1PL0 Copyright (c) Steve Scherf et al.
# Submitted via: cdripper 1.0.7
#
DISCID=4e06c407
DTITLE=Blues Union - highwayaudiofire
DYEAR=1999
DGENRE=Blues
TTITLE0=We Ain't in Kansas No More
TTITLE1=Catfish Blues Revisited
TTITLE2=Backwoods Mojo
TTITLE3=To Get to You
TTITLE4=Oh Pretty Woman
TTITLE5=Revka
TTITLE6=To Get to You (Reprise)
EXTD=YEAR: 1999
EXTT0=
EXTT1=
EXTT2=
EXTT3=
EXTT4=
EXTT5=
EXTT6=
PLAYORDER=
